# xmcd
#
# Track frame offsets: 
#        150
#        15256
#        32747
#        44688
#        62795
#        78699
#        90929
#        106918
#        121739
#        132847
#        145306
#        157002
#        173608
#        186084
#        202432
#        216687
#
# Disc length: 3088 seconds
#
# Revision: 2
# Processed by: cddbd v1.5.2PL0 Copyright (c) Steve Scherf et al.
# Submitted via: ExactAudioCopyFreeDBPlugin 1.0
#
DISCID=e50c0e10
DTITLE=187 Strassenbande - Sampler 4
DYEAR=2017
DGENRE=Deutsch Hip-Hop
TTITLE0=Intro (feat. LX, Sa4, Maxwell)
TTITLE1=Mit den Jungz (feat. Gzuz, Bonez, LX)
TTITLE2=Millionär (feat. Bonez, Gzuz)
TTITLE3=High Life (feat. Bonez, RAF Camora, Gzuz, Maxwell)
TTITLE4=100er Batzen (feat. Sa4, Gzuz, Bonez, LX)
TTITLE5=Zeit ist Geld (feat. Sa4, Bonez Gzuz)
TTITLE6=30er Zone (feat. LX, Sa4, Maxwell)
TTITLE7=Sitzheizung (feat. Gzuz, Bonez)
TTITLE8=24-7 (feat. LX)
TTITLE9=Meine Message (feat. Maxwell)
TTITLE10=10 Dinger (feat. LX, Maxwell)
TTITLE11=Was ist passiert?! (feat. Bonez, LX, Gzuz)
TTITLE12=International (feat. Sa4)
TTITLE13=Mit Absicht (feat. LX, Bonez, Maxwell)
TTITLE14=Ballermann (feat. LX, Gzuz, Bonez)
TTITLE15=Lächeln (feat. Bonez)
EXTD=Release-Date: 18.07.2017\n\nMARO\n
EXTT0=
EXTT1=
EXTT2=
EXTT3=
EXTT4=
EXTT5=
EXTT6=
EXTT7=
EXTT8=
EXTT9=
EXTT10=
EXTT11=
EXTT12=
EXTT13=
EXTT14=
EXTT15=
PLAYORDER=
